<?xml version="1.0" encoding="UTF-8" standalone="no"?>
<!DOCTYPE svg PUBLIC "-//W3C//DTD SVG 1.1//EN"
 "http://www.w3.org/Graphics/SVG/1.1/DTD/svg11.dtd">
<!-- Generated by graphviz version 12.2.1 (20241206.2353)
 -->
<!-- Pages: 1 -->
<svg width="1422pt" height="345pt"
 viewBox="0.00 0.00 1422.25 345.00" xmlns="http://www.w3.org/2000/svg" xmlns:xlink="http://www.w3.org/1999/xlink">
<g id="graph0" class="graph" transform="scale(1 1) rotate(0) translate(4 341)">
<polygon fill="white" stroke="none" points="-4,4 -4,-341 1418.25,-341 1418.25,4 -4,4"/>
<!-- 2429380548208 -->
<g id="node1" class="node">
<title>2429380548208</title>
<polygon fill="lightblue" stroke="black" points="618.5,-142.5 618.5,-265.5 801.75,-265.5 801.75,-142.5 618.5,-142.5"/>
<text text-anchor="middle" x="710.12" y="-248.2" font-family="Times New Roman,serif" font-size="14.00">+</text>
<text text-anchor="middle" x="710.12" y="-231.7" font-family="Times New Roman,serif" font-size="14.00">Shape: (1, 1)</text>
<polyline fill="none" stroke="black" points="618.5,-224.5 801.75,-224.5"/>
<text text-anchor="middle" x="710.12" y="-207.2" font-family="Times New Roman,serif" font-size="14.00">Data: mean: &#45;3.000, std: 0.000</text>
<text text-anchor="middle" x="710.12" y="-190.7" font-family="Times New Roman,serif" font-size="14.00">min: &#45;3.000, max: &#45;3.000</text>
<polyline fill="none" stroke="black" points="618.5,-183.5 801.75,-183.5"/>
<text text-anchor="middle" x="710.12" y="-166.2" font-family="Times New Roman,serif" font-size="14.00">Grad: mean: 0.000, std: 0.000</text>
<text text-anchor="middle" x="710.12" y="-149.7" font-family="Times New Roman,serif" font-size="14.00">min: 0.000, max: 0.000</text>
</g>
<!-- 2429380543792relu -->
<g id="node6" class="node">
<title>2429380543792relu</title>
<ellipse fill="orange" stroke="black" cx="864.75" cy="-204" rx="27" ry="18"/>
<text text-anchor="middle" x="864.75" y="-198.95" font-family="Times New Roman,serif" font-size="14.00">relu</text>
</g>
<!-- 2429380548208&#45;&gt;2429380543792relu -->
<g id="edge6" class="edge">
<title>2429380548208&#45;&gt;2429380543792relu</title>
<path fill="none" stroke="black" d="M802.11,-204C810.47,-204 818.59,-204 826.04,-204"/>
<polygon fill="black" stroke="black" points="825.99,-207.5 835.99,-204 825.99,-200.5 825.99,-207.5"/>
</g>
<!-- 2429380548208+ -->
<g id="node2" class="node">
<title>2429380548208+</title>
<ellipse fill="lightblue" stroke="black" cx="555.5" cy="-204" rx="27" ry="18"/>
<text text-anchor="middle" x="555.5" y="-198.95" font-family="Times New Roman,serif" font-size="14.00">+</text>
</g>
<!-- 2429380548208+&#45;&gt;2429380548208 -->
<g id="edge1" class="edge">
<title>2429380548208+&#45;&gt;2429380548208</title>
<path fill="none" stroke="black" d="M582.74,-204C589.93,-204 598.18,-204 606.95,-204"/>
<polygon fill="black" stroke="black" points="606.78,-207.5 616.78,-204 606.78,-200.5 606.78,-207.5"/>
</g>
<!-- 2429497436416 -->
<g id="node3" class="node">
<title>2429497436416</title>
<polygon fill="white" stroke="black" points="310.75,-213.5 310.75,-336.5 491,-336.5 491,-213.5 310.75,-213.5"/>
<text text-anchor="middle" x="400.88" y="-319.2" font-family="Times New Roman,serif" font-size="14.00">Input</text>
<text text-anchor="middle" x="400.88" y="-302.7" font-family="Times New Roman,serif" font-size="14.00">Shape: (1, 1)</text>
<polyline fill="none" stroke="black" points="310.75,-295.5 491,-295.5"/>
<text text-anchor="middle" x="400.88" y="-278.2" font-family="Times New Roman,serif" font-size="14.00">Data: mean: 1.000, std: 0.000</text>
<text text-anchor="middle" x="400.88" y="-261.7" font-family="Times New Roman,serif" font-size="14.00">min: 1.000, max: 1.000</text>
<polyline fill="none" stroke="black" points="310.75,-254.5 491,-254.5"/>
<text text-anchor="middle" x="400.88" y="-237.2" font-family="Times New Roman,serif" font-size="14.00">Grad: mean: 0.000, std: 0.000</text>
<text text-anchor="middle" x="400.88" y="-220.7" font-family="Times New Roman,serif" font-size="14.00">min: 0.000, max: 0.000</text>
</g>
<!-- 2429497436416&#45;&gt;2429380548208+ -->
<g id="edge9" class="edge">
<title>2429497436416&#45;&gt;2429380548208+</title>
<path fill="none" stroke="black" d="M491.1,-233.49C502.26,-228.3 513.04,-223.29 522.45,-218.91"/>
<polygon fill="black" stroke="black" points="523.84,-222.12 531.43,-214.73 520.89,-215.78 523.84,-222.12"/>
</g>
<!-- 2429496819488 -->
<g id="node4" class="node">
<title>2429496819488</title>
<polygon fill="white" stroke="black" points="1.5,-142.5 1.5,-265.5 181.75,-265.5 181.75,-142.5 1.5,-142.5"/>
<text text-anchor="middle" x="91.62" y="-248.2" font-family="Times New Roman,serif" font-size="14.00">Input</text>
<text text-anchor="middle" x="91.62" y="-231.7" font-family="Times New Roman,serif" font-size="14.00">Shape: (2, 1)</text>
<polyline fill="none" stroke="black" points="1.5,-224.5 181.75,-224.5"/>
<text text-anchor="middle" x="91.62" y="-207.2" font-family="Times New Roman,serif" font-size="14.00">Data: mean: 2.500, std: 0.500</text>
<text text-anchor="middle" x="91.62" y="-190.7" font-family="Times New Roman,serif" font-size="14.00">min: 2.000, max: 3.000</text>
<polyline fill="none" stroke="black" points="1.5,-183.5 181.75,-183.5"/>
<text text-anchor="middle" x="91.62" y="-166.2" font-family="Times New Roman,serif" font-size="14.00">Grad: mean: 0.000, std: 0.000</text>
<text text-anchor="middle" x="91.62" y="-149.7" font-family="Times New Roman,serif" font-size="14.00">min: 0.000, max: 0.000</text>
</g>
<!-- 2429380523888@ -->
<g id="node8" class="node">
<title>2429380523888@</title>
<ellipse fill="plum" stroke="black" cx="246.25" cy="-133" rx="27" ry="18"/>
<text text-anchor="middle" x="246.25" y="-127.95" font-family="Times New Roman,serif" font-size="14.00">@</text>
</g>
<!-- 2429496819488&#45;&gt;2429380523888@ -->
<g id="edge8" class="edge">
<title>2429496819488&#45;&gt;2429380523888@</title>
<path fill="none" stroke="black" d="M181.85,-162.49C193.01,-157.3 203.79,-152.29 213.2,-147.91"/>
<polygon fill="black" stroke="black" points="214.59,-151.12 222.18,-143.73 211.64,-144.78 214.59,-151.12"/>
</g>
<!-- 2429380543792 -->
<g id="node5" class="node">
<title>2429380543792</title>
<polygon fill="orange" stroke="black" points="927.75,-142.5 927.75,-265.5 1108,-265.5 1108,-142.5 927.75,-142.5"/>
<text text-anchor="middle" x="1017.88" y="-248.2" font-family="Times New Roman,serif" font-size="14.00">relu</text>
<text text-anchor="middle" x="1017.88" y="-231.7" font-family="Times New Roman,serif" font-size="14.00">Shape: (1, 1)</text>
<polyline fill="none" stroke="black" points="927.75,-224.5 1108,-224.5"/>
<text text-anchor="middle" x="1017.88" y="-207.2" font-family="Times New Roman,serif" font-size="14.00">Data: mean: 0.000, std: 0.000</text>
<text text-anchor="middle" x="1017.88" y="-190.7" font-family="Times New Roman,serif" font-size="14.00">min: 0.000, max: 0.000</text>
<polyline fill="none" stroke="black" points="927.75,-183.5 1108,-183.5"/>
<text text-anchor="middle" x="1017.88" y="-166.2" font-family="Times New Roman,serif" font-size="14.00">Grad: mean: 1.000, std: 0.000</text>
<text text-anchor="middle" x="1017.88" y="-149.7" font-family="Times New Roman,serif" font-size="14.00">min: 1.000, max: 1.000</text>
</g>
<!-- 2429497449872sum -->
<g id="node10" class="node">
<title>2429497449872sum</title>
<ellipse fill="lightcoral" stroke="black" cx="1171" cy="-204" rx="27" ry="18"/>
<text text-anchor="middle" x="1171" y="-198.95" font-family="Times New Roman,serif" font-size="14.00">sum</text>
</g>
<!-- 2429380543792&#45;&gt;2429497449872sum -->
<g id="edge5" class="edge">
<title>2429380543792&#45;&gt;2429497449872sum</title>
<path fill="none" stroke="black" d="M1108.1,-204C1116.47,-204 1124.61,-204 1132.08,-204"/>
<polygon fill="black" stroke="black" points="1132.08,-207.5 1142.08,-204 1132.08,-200.5 1132.08,-207.5"/>
</g>
<!-- 2429380543792relu&#45;&gt;2429380543792 -->
<g id="edge2" class="edge">
<title>2429380543792relu&#45;&gt;2429380543792</title>
<path fill="none" stroke="black" d="M892.07,-204C899.13,-204 907.2,-204 915.77,-204"/>
<polygon fill="black" stroke="black" points="915.76,-207.5 925.76,-204 915.76,-200.5 915.76,-207.5"/>
</g>
<!-- 2429380523888 -->
<g id="node7" class="node">
<title>2429380523888</title>
<polygon fill="plum" stroke="black" points="309.25,-71.5 309.25,-194.5 492.5,-194.5 492.5,-71.5 309.25,-71.5"/>
<text text-anchor="middle" x="400.88" y="-177.2" font-family="Times New Roman,serif" font-size="14.00">@</text>
<text text-anchor="middle" x="400.88" y="-160.7" font-family="Times New Roman,serif" font-size="14.00">Shape: (1, 1)</text>
<polyline fill="none" stroke="black" points="309.25,-153.5 492.5,-153.5"/>
<text text-anchor="middle" x="400.88" y="-136.2" font-family="Times New Roman,serif" font-size="14.00">Data: mean: &#45;4.000, std: 0.000</text>
<text text-anchor="middle" x="400.88" y="-119.7" font-family="Times New Roman,serif" font-size="14.00">min: &#45;4.000, max: &#45;4.000</text>
<polyline fill="none" stroke="black" points="309.25,-112.5 492.5,-112.5"/>
<text text-anchor="middle" x="400.88" y="-95.2" font-family="Times New Roman,serif" font-size="14.00">Grad: mean: 0.000, std: 0.000</text>
<text text-anchor="middle" x="400.88" y="-78.7" font-family="Times New Roman,serif" font-size="14.00">min: 0.000, max: 0.000</text>
</g>
<!-- 2429380523888&#45;&gt;2429380548208+ -->
<g id="edge10" class="edge">
<title>2429380523888&#45;&gt;2429380548208+</title>
<path fill="none" stroke="black" d="M492.86,-175.33C503.39,-180.22 513.53,-184.94 522.44,-189.09"/>
<polygon fill="black" stroke="black" points="520.73,-192.15 531.28,-193.2 523.68,-185.8 520.73,-192.15"/>
</g>
<!-- 2429380523888@&#45;&gt;2429380523888 -->
<g id="edge3" class="edge">
<title>2429380523888@&#45;&gt;2429380523888</title>
<path fill="none" stroke="black" d="M273.49,-133C280.68,-133 288.93,-133 297.7,-133"/>
<polygon fill="black" stroke="black" points="297.53,-136.5 307.53,-133 297.53,-129.5 297.53,-136.5"/>
</g>
<!-- 2429497449872 -->
<g id="node9" class="node">
<title>2429497449872</title>
<polygon fill="lightcoral" stroke="black" points="1234,-142.5 1234,-265.5 1414.25,-265.5 1414.25,-142.5 1234,-142.5"/>
<text text-anchor="middle" x="1324.12" y="-248.2" font-family="Times New Roman,serif" font-size="14.00">sum</text>
<text text-anchor="middle" x="1324.12" y="-231.7" font-family="Times New Roman,serif" font-size="14.00">Shape: (1, 1)</text>
<polyline fill="none" stroke="black" points="1234,-224.5 1414.25,-224.5"/>
<text text-anchor="middle" x="1324.12" y="-207.2" font-family="Times New Roman,serif" font-size="14.00">Data: mean: 0.000, std: 0.000</text>
<text text-anchor="middle" x="1324.12" y="-190.7" font-family="Times New Roman,serif" font-size="14.00">min: 0.000, max: 0.000</text>
<polyline fill="none" stroke="black" points="1234,-183.5 1414.25,-183.5"/>
<text text-anchor="middle" x="1324.12" y="-166.2" font-family="Times New Roman,serif" font-size="14.00">Grad: mean: 1.000, std: 0.000</text>
<text text-anchor="middle" x="1324.12" y="-149.7" font-family="Times New Roman,serif" font-size="14.00">min: 1.000, max: 1.000</text>
</g>
<!-- 2429497449872sum&#45;&gt;2429497449872 -->
<g id="edge4" class="edge">
<title>2429497449872sum&#45;&gt;2429497449872</title>
<path fill="none" stroke="black" d="M1198.32,-204C1205.38,-204 1213.45,-204 1222.02,-204"/>
<polygon fill="black" stroke="black" points="1222.01,-207.5 1232.01,-204 1222.01,-200.5 1222.01,-207.5"/>
</g>
<!-- 2429497429984 -->
<g id="node11" class="node">
<title>2429497429984</title>
<polygon fill="white" stroke="black" points="0,-0.5 0,-123.5 183.25,-123.5 183.25,-0.5 0,-0.5"/>
<text text-anchor="middle" x="91.62" y="-106.2" font-family="Times New Roman,serif" font-size="14.00">Input</text>
<text text-anchor="middle" x="91.62" y="-89.7" font-family="Times New Roman,serif" font-size="14.00">Shape: (1, 2)</text>
<polyline fill="none" stroke="black" points="0,-82.5 183.25,-82.5"/>
<text text-anchor="middle" x="91.62" y="-65.2" font-family="Times New Roman,serif" font-size="14.00">Data: mean: &#45;0.500, std: 1.500</text>
<text text-anchor="middle" x="91.62" y="-48.7" font-family="Times New Roman,serif" font-size="14.00">min: &#45;2.000, max: 1.000</text>
<polyline fill="none" stroke="black" points="0,-41.5 183.25,-41.5"/>
<text text-anchor="middle" x="91.62" y="-24.2" font-family="Times New Roman,serif" font-size="14.00">Grad: mean: 0.000, std: 0.000</text>
<text text-anchor="middle" x="91.62" y="-7.7" font-family="Times New Roman,serif" font-size="14.00">min: 0.000, max: 0.000</text>
</g>
<!-- 2429497429984&#45;&gt;2429380523888@ -->
<g id="edge7" class="edge">
<title>2429497429984&#45;&gt;2429380523888@</title>
<path fill="none" stroke="black" d="M183.61,-104.33C194.14,-109.22 204.28,-113.94 213.19,-118.09"/>
<polygon fill="black" stroke="black" points="211.48,-121.15 222.03,-122.2 214.43,-114.8 211.48,-121.15"/>
</g>
</g>
</svg>
